<svg version="1.1" xmlns="http://www.w3.org/2000/svg" viewBox="0 0 1608.5 616.8685886558754" width="1608.5" height="616.8685886558754">
  <!-- svg-source:excalidraw -->
  
  <defs>
    <style class="style-fonts">
      @font-face {
        font-family: "Virgil";
        src: url("https://excalidraw.com/Virgil.woff2");
      }
      @font-face {
        font-family: "Cascadia";
        src: url("https://excalidraw.com/Cascadia.woff2");
      }
    </style>
  </defs>
  <rect x="0" y="0" width="1608.5" height="616.8685886558754" fill="#ffffff"></rect><g stroke-linecap="round" transform="translate(10 293.5000000000001) rotate(0 109.5 63.00000000000006)"><path d="M31.5 0 M31.5 0 C78.74 2.81, 125.35 0.43, 187.5 0 M31.5 0 C89.48 -0.45, 145.14 0.04, 187.5 0 M187.5 0 C207.14 -0.76, 219.44 8.62, 219 31.5 M187.5 0 C208.89 -2.12, 220.76 8.54, 219 31.5 M219 31.5 C218.63 44.88, 217.98 62.14, 219 94.5 M219 31.5 C219.59 55.61, 219.83 81.73, 219 94.5 M219 94.5 C220.81 116.47, 207.07 126.84, 187.5 126 M219 94.5 C219.35 115.44, 210.22 124.89, 187.5 126 M187.5 126 C149.78 125.84, 111.67 127.69, 31.5 126 M187.5 126 C156.16 125.41, 125.27 125.86, 31.5 126 M31.5 126 C8.96 127.15, 0.86 113.9, 0 94.5 M31.5 126 C12.08 126.48, 1.59 115.59, 0 94.5 M0 94.5 C-0.47 78.22, 1.09 60.68, 0 31.5 M0 94.5 C-0.16 81.03, -0.56 66.82, 0 31.5 M0 31.5 C0.51 10.98, 9.97 -0.17, 31.5 0 M0 31.5 C-0.21 9.36, 12.19 1.64, 31.5 0" stroke="#000000" stroke-width="1" fill="none"></path></g><g transform="translate(55 311.5000000000001) rotate(0 69.5 12.5)"><text x="0" y="18" font-family="Virgil, Segoe UI Emoji" font-size="20px" fill="#000000" text-anchor="start" style="white-space: pre;" direction="ltr">Local Sources</text></g><g transform="translate(31 348.5000000000001) rotate(0 72 25)"><text x="0" y="18" font-family="Virgil, Segoe UI Emoji" font-size="20px" fill="#000000" text-anchor="start" style="white-space: pre;" direction="ltr">- User input</text><text x="0" y="43" font-family="Virgil, Segoe UI Emoji" font-size="20px" fill="#000000" text-anchor="start" style="white-space: pre;" direction="ltr">- Browser API</text></g><g stroke-linecap="round" transform="translate(1365.5 274.5000000000001) rotate(0 116.5 73.50000000000006)"><path d="M32 0 M32 0 C76.34 -0.42, 119.93 2.3, 201 0 M32 0 C94.83 0.21, 156.44 1.13, 201 0 M201 0 C222.58 1.69, 234.44 9.32, 233 32 M201 0 C223.92 1.13, 231.51 8.37, 233 32 M233 32 C233.76 47.51, 232.37 65.07, 233 115 M233 32 C232.6 52.63, 233.8 75.63, 233 115 M233 115 C233.2 137.28, 223.49 146.45, 201 147 M233 115 C233.4 137.36, 224.13 146.3, 201 147 M201 147 C134.43 146.65, 70.31 148.08, 32 147 M201 147 C164.17 146.36, 125.64 146.65, 32 147 M32 147 C9.4 145.16, 0.81 137.43, 0 115 M32 147 C12.01 146.22, -1.02 135.59, 0 115 M0 115 C-1.07 96.69, -1.45 81.61, 0 32 M0 115 C0.46 85.97, 0.7 57.85, 0 32 M0 32 C1.02 9.96, 8.94 -0.66, 32 0 M0 32 C0.6 12.56, 11.78 0.87, 32 0" stroke="#000000" stroke-width="1" fill="none"></path></g><g transform="translate(1399.5 290.5000000000001) rotate(0 82 12.5)"><text x="0" y="18" font-family="Virgil, Segoe UI Emoji" font-size="20px" fill="#000000" text-anchor="start" style="white-space: pre;" direction="ltr">Network Sources</text></g><g transform="translate(1381.5 329.5000000000001) rotate(0 96 37.5)"><text x="0" y="18" font-family="Virgil, Segoe UI Emoji" font-size="20px" fill="#000000" text-anchor="start" style="white-space: pre;" direction="ltr">- Backend API</text><text x="0" y="43" font-family="Virgil, Segoe UI Emoji" font-size="20px" fill="#000000" text-anchor="start" style="white-space: pre;" direction="ltr">- Third-Party APIs</text><text x="0" y="68" font-family="Virgil, Segoe UI Emoji" font-size="20px" fill="#000000" text-anchor="start" style="white-space: pre;" direction="ltr">- Cloud SDK</text></g><g stroke-linecap="round" transform="translate(277 292.5000000000001) rotate(0 74.5 66.5)"><path d="M93.75 16.75 M93.75 16.75 C103.51 24.78, 112.14 37.17, 130.25 50.25 M93.75 16.75 C107.92 29.2, 122 43.89, 130.25 50.25 M130.25 50.25 C149.23 66.28, 147.38 66.23, 130.25 83.75 M130.25 50.25 C149.75 66.07, 148.18 64.79, 130.25 83.75 M130.25 83.75 C116.18 94.27, 103.58 108.6, 93.75 116.25 M130.25 83.75 C117.38 94.54, 106.11 104.66, 93.75 116.25 M93.75 116.25 C76.68 132.73, 73.19 133.2, 56.25 116.25 M93.75 116.25 C73.1 132.2, 73.18 132.81, 56.25 116.25 M56.25 116.25 C45.7 104.78, 31.53 95.59, 18.75 83.75 M56.25 116.25 C43.31 105.78, 29.87 92.58, 18.75 83.75 M18.75 83.75 C-1.39 66.16, 1.36 65.24, 18.75 50.25 M18.75 83.75 C-0.63 66.65, -0.5 69.13, 18.75 50.25 M18.75 50.25 C33.72 37.99, 46.42 26.08, 56.25 16.75 M18.75 50.25 C32.4 36.62, 46.86 24.55, 56.25 16.75 M56.25 16.75 C74.22 1.11, 75.64 0.77, 93.75 16.75 M56.25 16.75 C74.32 -0.52, 73.82 -1.22, 93.75 16.75" stroke="#000000" stroke-width="1" fill="none"></path></g><g transform="translate(306 335.5000000000001) rotate(0 48.5 25)"><text x="0" y="18" font-family="Virgil, Segoe UI Emoji" font-size="20px" fill="#000000" text-anchor="start" style="white-space: pre;" direction="ltr">  User</text><text x="0" y="43" font-family="Virgil, Segoe UI Emoji" font-size="20px" fill="#000000" text-anchor="start" style="white-space: pre;" direction="ltr">Interface</text></g><g stroke-linecap="round"><g transform="translate(277.1857911829249 356.3341595481277) rotate(0 -23.36863156972774 -0.7677593299433738)"><path d="M-0.03 -0.09 C-7.72 -0.14, -38.03 0.04, -45.56 0.06 M-1.5 -1.18 C-9.44 -1.59, -39.29 -1.47, -46.71 -1.59" stroke="#000000" stroke-width="1" fill="none"></path></g><g transform="translate(277.1857911829249 356.3341595481277) rotate(0 -23.36863156972774 -0.7677593299433738)"><path d="M-25.58 -9.83 C-31.38 -6.64, -38.95 -3.86, -45.33 -0.22 M-25.99 -9.57 C-34.54 -6.52, -43.25 -2.87, -46.94 -0.63" stroke="#000000" stroke-width="1" fill="none"></path></g><g transform="translate(277.1857911829249 356.3341595481277) rotate(0 -23.36863156972774 -0.7677593299433738)"><path d="M-25.67 5.63 C-31.48 3.39, -39.02 0.75, -45.33 -0.22 M-26.08 5.88 C-34.46 2.81, -43.14 0.33, -46.94 -0.63" stroke="#000000" stroke-width="1" fill="none"></path></g></g><mask></mask><g stroke-linecap="round"><g transform="translate(236 370.5549285212261) rotate(0 19.70356184871673 -0.9342006375837855)"><path d="M-0.58 0.44 C6.21 0.05, 33.22 -1.74, 39.99 -2.31 M1.32 -0.37 C8.04 -0.58, 32.81 -0.62, 39.15 -0.91" stroke="#000000" stroke-width="1" fill="none"></path></g><g transform="translate(236 370.5549285212261) rotate(0 19.70356184871673 -0.9342006375837855)"><path d="M21.32 6.65 C24.52 5.1, 27.81 2.4, 37.92 0.45 M21.46 6.56 C27.68 3.6, 34.35 0.83, 38.35 -1.31" stroke="#000000" stroke-width="1" fill="none"></path></g><g transform="translate(236 370.5549285212261) rotate(0 19.70356184871673 -0.9342006375837855)"><path d="M21.03 -6.97 C24.3 -5.31, 27.66 -4.8, 37.92 0.45 M21.17 -7.06 C27.47 -4.74, 34.25 -2.24, 38.35 -1.31" stroke="#000000" stroke-width="1" fill="none"></path></g></g><mask></mask><g stroke-linecap="round"><g transform="translate(355.93849478569666 470.93724137495246) rotate(180 -1.96924739284907 -23.110900217234132)"><path d="M0.6 0.96 C-0.09 -6.59, -2.85 -37.75, -3.39 -45.38 M-0.55 0.42 C-1.49 -7.48, -4.1 -39.35, -4.54 -47.18" stroke="#000000" stroke-width="1" fill="none"></path></g></g><mask></mask><g stroke-linecap="round" transform="translate(232.0000000000001 475.71544094048454) rotate(180 123.00000000000011 58.5)"><path d="M29.25 0 M29.25 0 C100.73 1.7, 169.59 1.13, 216.75 0 M29.25 0 C91.03 -0.49, 155.07 -0.42, 216.75 0 M216.75 0 C235.86 -1.79, 244.49 9.92, 246 29.25 M216.75 0 C238.1 1.32, 247.82 9.73, 246 29.25 M246 29.25 C246.99 53.83, 244.11 74.33, 246 87.75 M246 29.25 C245.26 46.77, 245.49 62.51, 246 87.75 M246 87.75 C245.46 108.58, 236.14 115.08, 216.75 117 M246 87.75 C246.82 108.7, 234.73 116.44, 216.75 117 M216.75 117 C155.51 116.32, 92.91 116.7, 29.25 117 M216.75 117 C148.29 116.35, 79.24 115, 29.25 117 M29.25 117 C10.44 115.59, 0.26 107.58, 0 87.75 M29.25 117 C11.95 118.93, 1.08 108.03, 0 87.75 M0 87.75 C-0.55 66.29, 0.81 41.51, 0 29.25 M0 87.75 C0.21 68.66, -0.21 50.93, 0 29.25 M0 29.25 C1.89 10.85, 11.61 0.75, 29.25 0 M0 29.25 C1.49 8.42, 10.17 -1.8, 29.25 0" stroke="#000000" stroke-width="1" fill="none"></path></g><g transform="translate(293 495.5000000000002) rotate(0 65.5 12.5)"><text x="0" y="18" font-family="Virgil, Segoe UI Emoji" font-size="20px" fill="#000000" text-anchor="start" style="white-space: pre;" direction="ltr">Pages &amp; Nav</text></g><g transform="translate(251 529.5000000000002) rotate(0 105 25)"><text x="0" y="18" font-family="Virgil, Segoe UI Emoji" font-size="20px" fill="#000000" text-anchor="start" style="white-space: pre;" direction="ltr">- Business logic units</text><text x="0" y="43" font-family="Virgil, Segoe UI Emoji" font-size="20px" fill="#000000" text-anchor="start" style="white-space: pre;" direction="ltr">- Application Shell</text></g><g stroke-linecap="round"><g transform="translate(347 294.5000000000001) rotate(0 -0.9846594379702651 -23.220712173730135)"><path d="M0.26 0.49 C0.02 -7.32, -1.41 -39.23, -1.87 -46.93 M-1.07 -0.3 C-1.32 -7.98, -1.9 -38.56, -2.22 -45.88" stroke="#000000" stroke-width="1" fill="none"></path></g></g><mask></mask><g stroke-linecap="round" transform="translate(167.9999999999999 10.000000000000114) rotate(180 181.00000000000006 116.50000000000003)"><path d="M32 0 M32 0 C147.52 -0.59, 262.55 -2.9, 330 0 M32 0 C125.85 -0.68, 218.32 -1.01, 330 0 M330 0 C350.82 1.14, 360.06 9.21, 362 32 M330 0 C352.81 -1.67, 359.78 8.87, 362 32 M362 32 C363.63 94.31, 363.39 160.61, 362 201 M362 32 C362.38 92.98, 362.23 151.6, 362 201 M362 201 C362.31 221.97, 352.33 233.29, 330 233 M362 201 C362.32 223.78, 351.31 235.27, 330 233 M330 233 C223.6 231.93, 118.76 234.3, 32 233 M330 233 C256.38 234.66, 183.42 234.48, 32 233 M32 233 C9.1 231.17, -0.9 221.18, 0 201 M32 233 C11.17 234.26, 0.94 223.34, 0 201 M0 201 C-2.82 146.62, 0.33 88.09, 0 32 M0 201 C-0.8 151.09, -0.25 101.62, 0 32 M0 32 C0 11.04, 10.04 -0.46, 32 0 M0 32 C1.76 9.74, 11.8 -2.04, 32 0" stroke="#000000" stroke-width="1" fill="none"></path></g><g transform="translate(314.9999999999998 30.7845590595158) rotate(0 28.5 12.5)"><text x="0" y="18" font-family="Virgil, Segoe UI Emoji" font-size="20px" fill="#000000" text-anchor="start" style="white-space: pre;" direction="ltr">Forms</text></g><g transform="translate(182.99999999999977 72.7845590595158) rotate(0 154 75)"><text x="0" y="18" font-family="Virgil, Segoe UI Emoji" font-size="20px" fill="#000000" text-anchor="start" style="white-space: pre;" direction="ltr">- Application logic units</text><text x="0" y="43" font-family="Virgil, Segoe UI Emoji" font-size="20px" fill="#000000" text-anchor="start" style="white-space: pre;" direction="ltr">- Has its own store</text><text x="0" y="68" font-family="Virgil, Segoe UI Emoji" font-size="20px" fill="#000000" text-anchor="start" style="white-space: pre;" direction="ltr">  - Gets data from logic layer</text><text x="0" y="93" font-family="Virgil, Segoe UI Emoji" font-size="20px" fill="#000000" text-anchor="start" style="white-space: pre;" direction="ltr">  - Converts to display model</text><text x="0" y="118" font-family="Virgil, Segoe UI Emoji" font-size="20px" fill="#000000" text-anchor="start" style="white-space: pre;" direction="ltr">  - Coordinates actions</text><text x="0" y="143" font-family="Virgil, Segoe UI Emoji" font-size="20px" fill="#000000" text-anchor="start" style="white-space: pre;" direction="ltr">- Provides a context</text></g><g stroke-linecap="round" transform="translate(673.5 292.0000000000001) rotate(0 75 66.94630872483219)"><path d="M95 16.75 M95 16.75 C103.97 26.73, 114.95 34.94, 131 50.25 M95 16.75 C106.94 29.97, 119.93 40.88, 131 50.25 M131 50.25 C149.26 65.17, 150.32 66.3, 131 83.75 M131 50.25 C152.2 66.76, 152.19 67.77, 131 83.75 M131 83.75 C117.96 97.25, 103.65 107.63, 95 117.14 M131 83.75 C121.71 92.43, 112.25 101.83, 95 117.14 M95 117.14 C74.24 133.36, 77.27 134.98, 57 117.14 M95 117.14 C77.81 134.73, 74.3 135.98, 57 117.14 M57 117.14 C43.23 104.71, 25.88 89.92, 19 83.75 M57 117.14 C43.3 106.19, 31.59 95.36, 19 83.75 M19 83.75 C-1.83 65.46, -1.2 67.68, 19 50.25 M19 83.75 C-2.19 67.22, -0.76 65.26, 19 50.25 M19 50.25 C27.21 41.27, 40.41 33.75, 57 16.75 M19 50.25 C32.41 38.97, 45.48 26.48, 57 16.75 M57 16.75 C75.84 1.37, 75.73 -1.34, 95 16.75 M57 16.75 C74.26 1.2, 77.93 -0.39, 95 16.75" stroke="#000000" stroke-width="1" fill="none"></path></g><g transform="translate(726.6812080536913 349.3691275167787) rotate(0 22.5 11.5)"><text x="0" y="16" font-family="Virgil, Segoe UI Emoji" font-size="18.031618823261304px" fill="#000000" text-anchor="start" style="white-space: pre;" direction="ltr">Logic</text></g><g stroke-linecap="round" transform="translate(1100 303.55369127516803) rotate(0 75 66.94630872483219)"><path d="M95 16.75 M95 16.75 C106.35 27.14, 114.62 33.42, 131 50.25 M95 16.75 C105.39 25.6, 115.31 35.13, 131 50.25 M131 50.25 C149.98 68.58, 149.31 68.35, 131 83.75 M131 50.25 C148.03 67.28, 151.14 66.38, 131 83.75 M131 83.75 C124.17 89.74, 114.91 99.37, 95 117.14 M131 83.75 C121.13 92.46, 113.22 100.57, 95 117.14 M95 117.14 C76.39 132.13, 75.05 135.19, 57 117.14 M95 117.14 C76.21 133.9, 76.48 133.97, 57 117.14 M57 117.14 C49.55 109.09, 42.68 101.62, 19 83.75 M57 117.14 C43.98 103.78, 28.12 91.62, 19 83.75 M19 83.75 C-1.64 68.33, -0.67 68.91, 19 50.25 M19 83.75 C1.87 67.34, -2.26 68.3, 19 50.25 M19 50.25 C28.7 43.28, 34.73 35.38, 57 16.75 M19 50.25 C29.17 40.18, 40 30.68, 57 16.75 M57 16.75 C77.56 -0.82, 75.34 0.52, 95 16.75 M57 16.75 C77.37 1.92, 75.61 0.59, 95 16.75" stroke="#000000" stroke-width="1" fill="none"></path></g><g transform="translate(1132.1812080536913 350.9228187919465) rotate(0 44 23)"><text x="0" y="16" font-family="Virgil, Segoe UI Emoji" font-size="18.031618823261304px" fill="#000000" text-anchor="start" style="white-space: pre;" direction="ltr"> Network</text><text x="0" y="39" font-family="Virgil, Segoe UI Emoji" font-size="18.031618823261304px" fill="#000000" text-anchor="start" style="white-space: pre;" direction="ltr">Interface</text></g><g stroke-linecap="round"><g transform="translate(751 295.5064631942662) rotate(0 -1.9268462593713593 -23.127047646790743)"><path d="M0 0.46 C-0.4 -7.26, -2.59 -38.99, -2.94 -46.71 M-1.45 -0.34 C-1.97 -7.89, -3.7 -38.2, -3.86 -45.55" stroke="#000000" stroke-width="1" fill="none"></path></g></g><mask></mask><g stroke-linecap="round" transform="translate(571.9999999999999 11.006463194266189) rotate(180 181.00000000000006 116.50000000000003)"><path d="M32 0 M32 0 C112.04 -1.72, 193.04 -0.68, 330 0 M32 0 C98.01 -2, 162.81 -2.48, 330 0 M330 0 C350.09 -1.35, 363.86 11.42, 362 32 M330 0 C353.08 0.57, 360.75 8.67, 362 32 M362 32 C361.29 82.1, 361.72 130.94, 362 201 M362 32 C361.35 94.58, 360.85 156.62, 362 201 M362 201 C363.77 220.97, 353.29 234.15, 330 233 M362 201 C363.57 224.14, 352 231.65, 330 233 M330 233 C240.68 234.75, 151.48 235.81, 32 233 M330 233 C250.63 235.29, 171.65 234.66, 32 233 M32 233 C10.69 234.13, 1.39 223.18, 0 201 M32 233 C12.9 233.87, 0.05 224.59, 0 201 M0 201 C-0.85 141.57, -1.57 81.95, 0 32 M0 201 C-0.72 162.98, -0.49 124.74, 0 32 M0 32 C1.97 10.4, 12.2 -1.03, 32 0 M0 32 C-0.36 9.03, 9.43 1.63, 32 0" stroke="#000000" stroke-width="1" fill="none"></path></g><g transform="translate(718.9999999999998 31.791022253781875) rotate(0 33.5 12.5)"><text x="0" y="18" font-family="Virgil, Segoe UI Emoji" font-size="20px" fill="#000000" text-anchor="start" style="white-space: pre;" direction="ltr">Stores</text></g><g transform="translate(585.9999999999998 75.79102225378188) rotate(0 172 37.5)"><text x="0" y="18" font-family="Virgil, Segoe UI Emoji" font-size="20px" fill="#000000" text-anchor="start" style="white-space: pre;" direction="ltr">- Centralized data model</text><text x="0" y="43" font-family="Virgil, Segoe UI Emoji" font-size="20px" fill="#000000" text-anchor="start" style="white-space: pre;" direction="ltr">- Optimized for action performance</text><text x="0" y="68" font-family="Virgil, Segoe UI Emoji" font-size="20px" fill="#000000" text-anchor="start" style="white-space: pre;" direction="ltr">- Composed from logical units</text></g><g stroke-linecap="round"><g transform="translate(1174 301.5199979428205) rotate(0 -1.8640532143414248 -23.412709473818552)"><path d="M0.43 0.17 C-0.44 -7.82, -3.55 -39.35, -4.16 -46.99 M-0.8 -0.79 C-1.42 -8.74, -1.51 -38.74, -2.06 -45.98" stroke="#000000" stroke-width="1" fill="none"></path></g></g><mask></mask><g stroke-linecap="round" transform="translate(995 17.01999794282051) rotate(180 181 116.50000000000006)"><path d="M32 0 M32 0 C143.37 -1.53, 257.3 0.06, 330 0 M32 0 C134.98 -1.41, 239.16 -0.95, 330 0 M330 0 C350.75 1.3, 362.39 10.59, 362 32 M330 0 C352.93 -0.71, 359.85 9.06, 362 32 M362 32 C364.66 88.01, 363.88 146.31, 362 201 M362 32 C363.4 94.31, 363.44 158.6, 362 201 M362 201 C362.87 222.19, 349.49 232.31, 330 233 M362 201 C363.37 222.75, 353.6 231.51, 330 233 M330 233 C213.93 233.47, 100.54 231.95, 32 233 M330 233 C266.58 233.62, 205.18 233.8, 32 233 M32 233 C10.72 233.36, -1.39 221.61, 0 201 M32 233 C12.83 234.1, 2.07 222.63, 0 201 M0 201 C0.63 165.88, -0.44 126, 0 32 M0 201 C0.35 155.71, 1.33 112.15, 0 32 M0 32 C-1.04 9.58, 11.66 -0.78, 32 0 M0 32 C-0.16 8.38, 9.54 -0.37, 32 0" stroke="#000000" stroke-width="1" fill="none"></path></g><g transform="translate(1098.9999999999998 37.804557002336196) rotate(0 76.5 12.5)"><text x="0" y="18" font-family="Virgil, Segoe UI Emoji" font-size="20px" fill="#000000" text-anchor="start" style="white-space: pre;" direction="ltr">Query Wrappers</text></g><g transform="translate(1007.9999999999998 81.8045570023362) rotate(0 150 50)"><text x="0" y="18" font-family="Virgil, Segoe UI Emoji" font-size="20px" fill="#000000" text-anchor="start" style="white-space: pre;" direction="ltr">- APIs wrapped in stores</text><text x="0" y="43" font-family="Virgil, Segoe UI Emoji" font-size="20px" fill="#000000" text-anchor="start" style="white-space: pre;" direction="ltr">  - Map external data models</text><text x="0" y="68" font-family="Virgil, Segoe UI Emoji" font-size="20px" fill="#000000" text-anchor="start" style="white-space: pre;" direction="ltr">  - Wrap calls in actions</text><text x="0" y="93" font-family="Virgil, Segoe UI Emoji" font-size="20px" fill="#000000" text-anchor="start" style="white-space: pre;" direction="ltr">- Called from logic layer only</text></g><g stroke-linecap="round"><g transform="translate(750.9384947856964 477.09038909034314) rotate(180 -0.9376661033229539 -23.4291678659618)"><path d="M0.44 -0.36 C0.01 -7.99, -1.32 -38.81, -1.93 -46.5 M-0.79 -1.6 C-1.34 -9.01, -1.77 -37.91, -2.31 -45.22" stroke="#000000" stroke-width="1" fill="none"></path></g></g><mask></mask><g stroke-linecap="round" transform="translate(626.9999999999999 481.86858865587544) rotate(180 123.00000000000006 58.5)"><path d="M29.25 0 M29.25 0 C76.15 -0.26, 119.15 -0.25, 216.75 0 M29.25 0 C74.27 -2.11, 118.12 -2.56, 216.75 0 M216.75 0 C237.32 1.02, 247.43 11.18, 246 29.25 M216.75 0 C236.28 -1.88, 247.14 11.37, 246 29.25 M246 29.25 C247.27 53.55, 244.49 73.95, 246 87.75 M246 29.25 C245.03 50.72, 246.85 72.07, 246 87.75 M246 87.75 C247.93 106.34, 236.15 115.44, 216.75 117 M246 87.75 C246.51 107.38, 235.83 117.98, 216.75 117 M216.75 117 C144.55 115.18, 73.12 116.92, 29.25 117 M216.75 117 C146.49 117.15, 75.04 116.41, 29.25 117 M29.25 117 C11.56 116.88, -1.3 106.22, 0 87.75 M29.25 117 C9.37 117.85, 0.35 106.61, 0 87.75 M0 87.75 C1.2 73.14, 1.15 58.16, 0 29.25 M0 87.75 C0.21 74.25, 0.12 59.87, 0 29.25 M0 29.25 C-0.02 10.13, 10.76 -1.3, 29.25 0 M0 29.25 C0.72 10.58, 11.55 0.7, 29.25 0" stroke="#000000" stroke-width="1" fill="none"></path></g><g transform="translate(687.9999999999999 501.6531477153911) rotate(0 65.50000000000006 12.5)"><text x="0" y="18" font-family="Virgil, Segoe UI Emoji" font-size="20px" fill="#000000" text-anchor="start" style="white-space: pre;" direction="ltr">Pages &amp; Nav</text></g><g transform="translate(645.9999999999999 535.6531477153911) rotate(0 105.00000000000006 25)"><text x="0" y="18" font-family="Virgil, Segoe UI Emoji" font-size="20px" fill="#000000" text-anchor="start" style="white-space: pre;" direction="ltr">- Business logic units</text><text x="0" y="43" font-family="Virgil, Segoe UI Emoji" font-size="20px" fill="#000000" text-anchor="start" style="white-space: pre;" direction="ltr">- Application Shell</text></g><g stroke-linecap="round"><g transform="translate(1178.9384947856965 485.09038909034314) rotate(180 -2.4197454285654203 -22.766831839829706)"><path d="M-0.12 0.54 C-0.77 -7.04, -2.86 -38.46, -3.5 -46.08 M-1.65 -0.22 C-2.53 -7.55, -4.72 -36.78, -4.72 -44.58" stroke="#000000" stroke-width="1" fill="none"></path></g></g><mask></mask><g stroke-linecap="round" transform="translate(1055 489.86858865587544) rotate(180 123.00000000000011 58.5)"><path d="M29.25 0 M29.25 0 C75.34 -0.97, 121.49 0.58, 216.75 0 M29.25 0 C71.17 1.38, 112.45 1.1, 216.75 0 M216.75 0 C237 1.32, 244.17 9.4, 246 29.25 M216.75 0 C238.38 0.28, 244.85 8.68, 246 29.25 M246 29.25 C245.34 47.19, 245.47 66.55, 246 87.75 M246 29.25 C246.29 47.63, 244.81 64.49, 246 87.75 M246 87.75 C244.8 105.46, 238.17 116.27, 216.75 117 M246 87.75 C245.6 106.17, 237.23 119.12, 216.75 117 M216.75 117 C151.59 117.38, 86.99 117.38, 29.25 117 M216.75 117 C156.51 115.22, 96.21 115.88, 29.25 117 M29.25 117 C8.29 115.64, 1.69 108.88, 0 87.75 M29.25 117 C11.87 118.24, -0.13 108.58, 0 87.75 M0 87.75 C1.62 74.98, 0.84 63.34, 0 29.25 M0 87.75 C-0.35 70.15, 0.12 52.64, 0 29.25 M0 29.25 C-1.84 11.1, 10.58 -1.27, 29.25 0 M0 29.25 C-1.06 9.09, 9.98 -0.96, 29.25 0" stroke="#000000" stroke-width="1" fill="none"></path></g><g transform="translate(1116 509.6531477153911) rotate(0 65.5 12.5)"><text x="0" y="18" font-family="Virgil, Segoe UI Emoji" font-size="20px" fill="#000000" text-anchor="start" style="white-space: pre;" direction="ltr">Pages &amp; Nav</text></g><g transform="translate(1074 543.6531477153911) rotate(0 105 25)"><text x="0" y="18" font-family="Virgil, Segoe UI Emoji" font-size="20px" fill="#000000" text-anchor="start" style="white-space: pre;" direction="ltr">- Business logic units</text><text x="0" y="43" font-family="Virgil, Segoe UI Emoji" font-size="20px" fill="#000000" text-anchor="start" style="white-space: pre;" direction="ltr">- Application Shell</text></g><g stroke-linecap="round"><g transform="translate(419 337.5000000000001) rotate(0 133.744980058833 2.85747623583768)"><path d="M-0.81 0.31 C43.72 1.56, 221.38 5.26, 266.07 6.29 M0.97 -0.57 C45.97 0.4, 224 3.48, 268.3 4.31" stroke="#000000" stroke-width="1" fill="none"></path></g><g transform="translate(419 337.5000000000001) rotate(0 133.744980058833 2.85747623583768)"><path d="M240.45 12.52 C246.39 12.82, 252.62 11.02, 269.24 4.56 M239.8 14.86 C244.82 11.97, 250.8 9.03, 267.46 3.71" stroke="#000000" stroke-width="1" fill="none"></path></g><g transform="translate(419 337.5000000000001) rotate(0 133.744980058833 2.85747623583768)"><path d="M240.82 -8 C246.47 -3.44, 252.63 -0.99, 269.24 4.56 M240.17 -5.66 C245.32 -4.37, 251.23 -3.15, 267.46 3.71" stroke="#000000" stroke-width="1" fill="none"></path></g></g><mask></mask><g stroke-linecap="round"><g transform="translate(670 375.5000000000001) rotate(0 -121.62804056939666 -0.4293350823223818)"><path d="M-0.61 0.82 C-41.3 0.72, -203.4 -1.53, -244.07 -1.68 M1.27 0.21 C-39.51 0.34, -203.45 -0.15, -244.52 -0.5" stroke="#000000" stroke-width="1" fill="none"></path></g><g transform="translate(670 375.5000000000001) rotate(0 -121.62804056939666 -0.4293350823223818)"><path d="M-214.91 -9.05 C-226.17 -6.99, -232.14 -3.1, -245.37 -2.46 M-216.37 -9.87 C-227.1 -6.65, -238.42 -2.49, -244.51 -0.89" stroke="#000000" stroke-width="1" fill="none"></path></g><g transform="translate(670 375.5000000000001) rotate(0 -121.62804056939666 -0.4293350823223818)"><path d="M-215.02 11.47 C-226.06 7.24, -232 4.83, -245.37 -2.46 M-216.48 10.65 C-226.98 6.15, -238.26 2.6, -244.51 -0.89" stroke="#000000" stroke-width="1" fill="none"></path></g></g><mask></mask><g stroke-linecap="round"><g transform="translate(816 344.5000000000001) rotate(0 150.0416024319827 1.8171768683288292)"><path d="M-0.75 -0.05 C49.41 0.62, 250.75 3, 300.83 3.83 M1.06 -1.12 C51.14 -0.33, 250.69 3.53, 300.32 4.75" stroke="#000000" stroke-width="1" fill="none"></path></g><g transform="translate(816 344.5000000000001) rotate(0 150.0416024319827 1.8171768683288292)"><path d="M271.84 15.79 C278.22 11.34, 288.3 8.58, 298.94 4.43 M271.9 14.13 C279.65 11.07, 286.61 9.51, 301.08 4.87" stroke="#000000" stroke-width="1" fill="none"></path></g><g transform="translate(816 344.5000000000001) rotate(0 150.0416024319827 1.8171768683288292)"><path d="M272.28 -4.73 C278.5 -3.23, 288.45 -0.03, 298.94 4.43 M272.34 -6.38 C279.89 -3.89, 286.73 0.1, 301.08 4.87" stroke="#000000" stroke-width="1" fill="none"></path></g></g><mask></mask><g stroke-linecap="round"><g transform="translate(1112 377.5000000000001) rotate(0 -151.2503284196415 -0.6922640211880093)"><path d="M0.56 0.79 C-49.76 0.45, -251.74 -1.93, -302.42 -2.18 M-0.6 0.17 C-50.98 -0.07, -252.4 -1.36, -303.07 -1.26" stroke="#000000" stroke-width="1" fill="none"></path></g><g transform="translate(1112 377.5000000000001) rotate(0 -151.2503284196415 -0.6922640211880093)"><path d="M-273.52 -10.48 C-284.12 -9.56, -289 -4.81, -304.81 -1.48 M-274.47 -10.59 C-286.42 -8.62, -295.9 -4.52, -303.11 -0.95" stroke="#000000" stroke-width="1" fill="none"></path></g><g transform="translate(1112 377.5000000000001) rotate(0 -151.2503284196415 -0.6922640211880093)"><path d="M-273.58 10.04 C-284.15 5.65, -289.01 5.1, -304.81 -1.48 M-274.53 9.94 C-286.3 4, -295.75 0.21, -303.11 -0.95" stroke="#000000" stroke-width="1" fill="none"></path></g></g><mask></mask><g stroke-linecap="round"><g transform="translate(1243 353.5000000000001) rotate(0 57.474901758879355 1.1521850276086525)"><path d="M-0.87 -0.46 C18.52 -0.09, 96.58 2.16, 115.82 3.03 M0.88 -1.75 C20.23 -1.33, 96.52 3.29, 115.3 4.05" stroke="#000000" stroke-width="1" fill="none"></path></g><g transform="translate(1243 353.5000000000001) rotate(0 57.474901758879355 1.1521850276086525)"><path d="M85.85 14.21 C92.32 10.02, 102.58 8.96, 116.86 3.24 M86.73 13.57 C96.92 9.07, 105.89 6.81, 115.27 4.11" stroke="#000000" stroke-width="1" fill="none"></path></g><g transform="translate(1243 353.5000000000001) rotate(0 57.474901758879355 1.1521850276086525)"><path d="M86.9 -6.29 C93.24 -5.2, 103.24 -0.98, 116.86 3.24 M87.78 -6.93 C97.72 -4.42, 106.33 0.32, 115.27 4.11" stroke="#000000" stroke-width="1" fill="none"></path></g></g><mask></mask><g stroke-linecap="round"><g transform="translate(1345 376.5000000000001) rotate(0 -48.64619495250747 1.5266809964272738)"><path d="M0.32 0.33 C-15.81 0.84, -80.62 2.07, -96.78 2.38 M-0.97 -0.55 C-17.24 0.17, -81.58 2.99, -97.61 3.6" stroke="#000000" stroke-width="1" fill="none"></path></g><g transform="translate(1345 376.5000000000001) rotate(0 -48.64619495250747 1.5266809964272738)"><path d="M-69.32 -7.45 C-79.27 -3.69, -87.88 -0.85, -99.26 3.92 M-69.29 -8.3 C-77.52 -4.56, -85.39 -2.29, -96.84 2.96" stroke="#000000" stroke-width="1" fill="none"></path></g><g transform="translate(1345 376.5000000000001) rotate(0 -48.64619495250747 1.5266809964272738)"><path d="M-68.48 13.05 C-78.56 10.67, -87.43 7.37, -99.26 3.92 M-68.44 12.21 C-76.85 10.21, -84.96 6.75, -96.84 2.96" stroke="#000000" stroke-width="1" fill="none"></path></g></g><mask></mask></svg>